<?xml version="1.0" standalone="no"?>
<!DOCTYPE svg PUBLIC "-//W3C//DTD SVG 20010904//EN"
 "http://www.w3.org/TR/2001/REC-SVG-20010904/DTD/svg10.dtd">
<svg version="1.0" xmlns="http://www.w3.org/2000/svg"
 width="195.000000pt" height="195.000000pt" viewBox="0 0 195.000000 195.000000"
 preserveAspectRatio="xMidYMid meet">
<metadata>
Created by potrace 1.10, written by Peter Selinger 2001-2011
</metadata>
<g transform="translate(0.000000,195.000000) scale(0.100000,-0.100000)"
fill="#000000" stroke="none">
<path d="M0 1031 l0 -920 52 -3 53 -3 3 -53 3 -52 920 0 919 0 0 910 0 909
-62 3 -63 3 -3 63 -3 62 -909 0 -910 0 0 -919z m1755 819 l0 -25 -820 -5 -820
-5 -5 -820 -5 -820 -25 0 -25 0 -3 840 c-1 462 0 846 3 853 3 10 179 12 852
10 l848 -3 0 -25z m0 -885 l0 -790 -790 0 -790 0 -3 780 c-1 429 0 786 3 793
3 10 167 12 792 10 l788 -3 0 -790z m120 -60 l0 -850 -850 0 -850 0 0 25 0 25
820 5 820 5 2 810 c2 446 5 816 8 823 3 7 15 12 27 10 l23 -3 0 -850z"/>
<path d="M835 1627 c-3 -7 -5 -54 -3 -103 3 -88 3 -89 28 -89 25 0 25 0 25
100 0 96 -1 100 -23 103 -12 2 -24 -3 -27 -11z"/>
<path d="M594 1537 c-3 -8 -4 -34 -2 -58 3 -39 6 -44 28 -44 24 0 25 3 25 55
0 49 -2 55 -23 58 -12 2 -24 -3 -28 -11z"/>
<path d="M1074 1537 c-3 -8 -4 -34 -2 -58 3 -39 6 -44 28 -44 24 0 25 3 25 55
0 49 -2 55 -23 58 -12 2 -24 -3 -28 -11z"/>
<path d="M385 1328 c-3 -7 -4 -242 -3 -523 l3 -510 475 0 475 0 5 175 5 174
30 7 c88 20 151 69 185 146 62 140 -25 296 -185 332 l-30 7 -5 99 -5 100 -473
3 c-373 2 -474 0 -477 -10z m890 -513 l0 -460 -415 0 -415 0 -3 450 c-1 248 0
456 3 463 3 10 92 12 417 10 l413 -3 0 -460z m138 238 c49 -27 68 -45 88 -85
47 -93 2 -205 -100 -248 -59 -24 -61 -18 -61 168 0 93 3 172 7 175 11 11 33 8
66 -10z"/>
</g>
</svg>
