<?xml version="1.0" standalone="no"?>
<!DOCTYPE svg PUBLIC "-//W3C//DTD SVG 20010904//EN"
 "http://www.w3.org/TR/2001/REC-SVG-20010904/DTD/svg10.dtd">
<svg version="1.0" xmlns="http://www.w3.org/2000/svg"
 width="195.000000pt" height="195.000000pt" viewBox="0 0 195.000000 195.000000"
 preserveAspectRatio="xMidYMid meet">
<metadata>
Created by potrace 1.10, written by Peter Selinger 2001-2011
</metadata>
<g transform="translate(0.000000,195.000000) scale(0.100000,-0.100000)"
fill="#000000" stroke="none">
<path d="M0 1031 l0 -920 52 -3 53 -3 3 -53 3 -52 920 0 919 0 0 910 0 909
-62 3 -63 3 -3 63 -3 62 -909 0 -910 0 0 -919z m1755 819 l0 -25 -820 -5 -820
-5 -5 -820 -5 -820 -25 0 -25 0 -3 840 c-1 462 0 846 3 853 3 10 179 12 852
10 l848 -3 0 -25z m0 -885 l0 -790 -790 0 -790 0 -3 780 c-1 429 0 786 3 793
3 10 167 12 792 10 l788 -3 0 -790z m120 -60 l0 -850 -850 0 -850 0 0 25 0 25
820 5 820 5 2 810 c2 446 5 816 8 823 3 7 15 12 27 10 l23 -3 0 -850z"/>
<path d="M1119 1405 c-43 -28 -79 -85 -79 -126 0 -65 85 -149 150 -149 65 0
150 84 150 149 0 68 -85 152 -152 150 -18 0 -49 -11 -69 -24z m132 -64 c20
-20 29 -39 29 -61 0 -43 -47 -90 -90 -90 -43 0 -90 47 -90 90 0 43 47 90 90
90 22 0 41 -9 61 -29z"/>
<path d="M1073 875 c-56 -58 -105 -105 -109 -105 -3 0 -32 27 -63 60 -32 33
-63 60 -70 60 -23 0 -361 -346 -361 -369 0 -50 42 -21 197 134 85 85 158 155
163 155 5 0 92 -83 193 -185 185 -185 227 -215 227 -163 0 14 -40 61 -120 139
-66 65 -120 121 -120 124 0 9 172 175 181 175 4 0 64 -56 132 -125 125 -125
167 -151 167 -104 0 23 -279 309 -302 309 -7 0 -59 -48 -115 -105z"/>
</g>
</svg>
