<?xml version="1.0" standalone="no"?>
<!DOCTYPE svg PUBLIC "-//W3C//DTD SVG 20010904//EN"
 "http://www.w3.org/TR/2001/REC-SVG-20010904/DTD/svg10.dtd">
<svg version="1.0" xmlns="http://www.w3.org/2000/svg"
 width="195.000000pt" height="195.000000pt" viewBox="0 0 195.000000 195.000000"
 preserveAspectRatio="xMidYMid meet">
<metadata>
Created by potrace 1.10, written by Peter Selinger 2001-2011
</metadata>
<g transform="translate(0.000000,195.000000) scale(0.100000,-0.100000)"
fill="#000000" stroke="none">
<path d="M0 1031 l0 -920 52 -3 53 -3 3 -53 3 -52 920 0 919 0 0 910 0 909
-62 3 -63 3 -3 63 -3 62 -909 0 -910 0 0 -919z m1755 819 l0 -25 -820 -5 -820
-5 -5 -820 -5 -820 -25 0 -25 0 -3 840 c-1 462 0 846 3 853 3 10 179 12 852
10 l848 -3 0 -25z m0 -885 l0 -790 -790 0 -790 0 -3 780 c-1 429 0 786 3 793
3 10 167 12 792 10 l788 -3 0 -790z m120 -60 l0 -850 -850 0 -850 0 0 25 0 25
820 5 820 5 2 810 c2 446 5 816 8 823 3 7 15 12 27 10 l23 -3 0 -850z"/>
<path d="M815 1471 c-60 -17 -107 -35 -135 -52 -8 -5 -22 -12 -30 -16 -37 -16
-162 -118 -209 -170 -55 -60 -133 -172 -163 -233 -17 -34 -17 -37 0 -71 32
-63 109 -173 163 -232 58 -64 202 -175 249 -193 8 -3 29 -11 45 -19 107 -47
261 -58 381 -26 65 18 88 27 134 53 8 4 22 11 30 15 8 3 47 30 85 59 109 81
180 164 260 299 l47 79 -23 45 c-45 92 -115 188 -194 266 -73 73 -189 155
-219 155 -6 0 -16 4 -22 10 -5 5 -43 19 -84 30 -94 25 -230 25 -315 1z m294
-57 c163 -47 290 -140 406 -299 39 -52 51 -73 70 -114 14 -31 14 -38 0 -65
-80 -159 -237 -315 -385 -383 -227 -105 -478 -52 -674 143 -57 58 -136 154
-149 184 -4 8 -16 30 -28 49 -19 31 -19 36 -4 65 80 159 237 314 385 383 117
54 268 69 379 37z"/>
<path d="M925 1133 c-31 -8 -36 -17 -27 -44 13 -34 -11 -77 -46 -84 -49 -11
-57 -20 -55 -65 2 -50 20 -79 69 -116 30 -24 45 -28 99 -28 54 0 69 4 99 28
56 42 71 72 71 141 0 66 -21 106 -73 144 -29 20 -102 33 -137 24z m125 -88
c20 -21 24 -37 24 -81 0 -46 -4 -59 -27 -81 -22 -23 -35 -27 -81 -27 -44 0
-60 4 -81 24 -32 30 -32 58 -1 70 32 12 66 41 66 57 0 6 4 23 10 37 13 35 58
35 90 1z"/>
</g>
</svg>
