<?xml version="1.0" standalone="no"?>
<!DOCTYPE svg PUBLIC "-//W3C//DTD SVG 20010904//EN"
 "http://www.w3.org/TR/2001/REC-SVG-20010904/DTD/svg10.dtd">
<svg version="1.0" xmlns="http://www.w3.org/2000/svg"
 width="195.000000pt" height="195.000000pt" viewBox="0 0 195.000000 195.000000"
 preserveAspectRatio="xMidYMid meet">
<metadata>
Created by potrace 1.10, written by Peter Selinger 2001-2011
</metadata>
<g transform="translate(0.000000,195.000000) scale(0.100000,-0.100000)"
fill="#000000" stroke="none">
<path d="M0 1031 l0 -920 52 -3 53 -3 3 -53 3 -52 920 0 919 0 0 910 0 909
-62 3 -63 3 -3 63 -3 62 -909 0 -910 0 0 -919z m1755 819 l0 -25 -820 -5 -820
-5 -5 -820 -5 -820 -25 0 -25 0 -3 840 c-1 462 0 846 3 853 3 10 179 12 852
10 l848 -3 0 -25z m0 -885 l0 -790 -790 0 -790 0 -3 780 c-1 429 0 786 3 793
3 10 167 12 792 10 l788 -3 0 -790z m120 -60 l0 -850 -850 0 -850 0 0 25 0 25
820 5 820 5 2 810 c2 446 5 816 8 823 3 7 15 12 27 10 l23 -3 0 -850z"/>
<path d="M565 1628 c-3 -7 -4 -310 -3 -673 l3 -660 400 0 400 0 0 670 0 670
-398 3 c-313 2 -399 0 -402 -10z m740 -663 l0 -610 -340 0 -340 0 -3 600 c-1
330 0 606 3 613 3 10 77 12 342 10 l338 -3 0 -610z"/>
<path d="M894 1515 c-14 -36 3 -46 73 -43 65 3 68 4 68 28 0 24 -3 25 -68 28
-53 2 -68 0 -73 -13z"/>
<path d="M945 538 c-31 -18 -54 -51 -55 -78 0 -38 44 -80 85 -80 85 0 110 116
34 155 -33 18 -38 18 -64 3z m43 -60 c20 -20 14 -38 -13 -38 -18 0 -25 5 -25
18 0 32 17 41 38 20z"/>
</g>
</svg>
