<?xml version="1.0" standalone="no"?>
<!DOCTYPE svg PUBLIC "-//W3C//DTD SVG 20010904//EN"
 "http://www.w3.org/TR/2001/REC-SVG-20010904/DTD/svg10.dtd">
<svg version="1.0" xmlns="http://www.w3.org/2000/svg"
 width="50.000000pt" height="80.000000pt" viewBox="0 0 252.000000 354.000000"
 preserveAspectRatio="xMidYMid meet">
<metadata>
Created by potrace 1.10, written by Peter Selinger 2001-2011
</metadata>
<g transform="translate(0.000000,354.000000) scale(0.100000,-0.100000)"
fill="#000000" stroke="none">
<path d="M714 2075 c-4 -8 -4 -22 0 -30 5 -13 61 -15 448 -13 l443 3 0 25 0
25 -443 3 c-387 2 -443 0 -448 -13z"/>
<path d="M714 1925 c-4 -8 -4 -22 0 -30 5 -13 61 -15 448 -13 l443 3 0 25 0
25 -443 3 c-387 2 -443 0 -448 -13z"/>
<path d="M714 1775 c-4 -8 -4 -22 0 -30 5 -13 61 -15 448 -13 l443 3 0 25 0
25 -443 3 c-387 2 -443 0 -448 -13z"/>
</g>
</svg>
