<?xml version="1.0" standalone="no"?>
<!DOCTYPE svg PUBLIC "-//W3C//DTD SVG 20010904//EN"
 "http://www.w3.org/TR/2001/REC-SVG-20010904/DTD/svg10.dtd">
<svg version="1.0" xmlns="http://www.w3.org/2000/svg"
 width="50.000000pt" height="100.000000pt" viewBox="0 0 252.000000 354.000000"
 preserveAspectRatio="xMidYMid meet">
<metadata>
Created by potrace 1.10, written by Peter Selinger 2001-2011
</metadata>
<g transform="translate(0.000000,354.000000) scale(0.100000,-0.100000)"
fill="#ffffff" stroke="none">
<path d="M0 1870 l0 -1669 98 -3 97 -3 3 -97 3 -98 1159 0 1160 0 0 1660 0
1659 -107 3 -108 3 -3 108 -3 107 -1149 0 -1150 0 0 -1670z m2205 1510 l0 -55
-1000 -5 -1000 -5 -5 -1510 -5 -1510 -55 0 -55 0 -3 1560 c-1 858 0 1566 3
1573 3 10 221 12 1062 10 l1058 -3 0 -55z m0 -1620 l0 -1465 -955 0 -955 0 -3
1455 c-1 800 0 1461 3 1468 3 10 200 12 957 10 l953 -3 0 -1465z m210 -105 l0
-1570 -1060 0 -1060 0 0 55 0 55 1000 5 1000 5 2 1500 c2 825 5 1506 8 1513 3
9 21 12 57 10 l53 -3 0 -1570z"/>
<path d="M1130 2525 c-7 -8 -27 -15 -44 -15 -23 0 -41 -9 -61 -30 -16 -16 -36
-30 -45 -30 -20 0 -90 -71 -90 -91 0 -8 -13 -28 -30 -44 l-30 -29 0 -152 c0
-122 3 -154 15 -164 8 -7 15 -20 15 -29 0 -9 27 -43 60 -76 33 -33 60 -66 60
-75 0 -8 -34 -49 -75 -90 -69 -68 -76 -78 -73 -110 l3 -35 80 -3 80 -3 75 76
c61 62 80 75 106 75 17 0 37 -7 44 -15 7 -8 27 -15 45 -15 18 0 38 -7 45 -15
7 -8 20 -15 30 -15 10 0 23 -7 30 -15 7 -8 20 -15 30 -15 10 0 23 -7 30 -15 7
-8 20 -15 29 -15 9 0 47 -30 84 -68 l67 -68 0 -121 c0 -95 -3 -123 -15 -133
-8 -7 -15 -20 -15 -29 0 -21 -41 -61 -62 -61 -9 0 -21 -7 -28 -15 -7 -8 -20
-15 -30 -15 -10 0 -23 -7 -30 -15 -8 -10 -37 -15 -93 -17 l-82 -3 0 -70 0 -70
111 -3 c90 -2 113 0 124 13 7 8 20 15 30 15 10 0 23 7 30 15 7 8 20 15 29 15
21 0 91 70 91 91 0 8 14 28 30 44 17 16 30 36 30 46 0 9 7 22 15 29 12 10 15
42 15 165 0 123 -3 155 -15 165 -8 7 -15 20 -15 29 0 21 -190 211 -211 211 -9
0 -22 7 -29 15 -7 8 -20 15 -30 15 -10 0 -23 7 -30 15 -7 8 -27 15 -45 15 -18
0 -38 7 -45 15 -7 8 -23 15 -36 15 -13 0 -24 4 -24 9 0 5 27 35 60 67 33 31
60 64 60 73 0 21 309 328 335 333 34 6 30 38 -11 79 -21 21 -45 39 -54 39 -9
0 -29 14 -45 30 -16 17 -36 30 -46 30 -9 0 -22 7 -29 15 -7 8 -20 15 -30 15
-10 0 -23 7 -30 15 -10 12 -43 15 -180 15 -137 0 -170 -3 -180 -15z m330 -149
c6 -8 21 -16 33 -18 54 -8 32 -38 -174 -244 -112 -112 -210 -204 -219 -204 -8
0 -38 23 -67 52 l-53 52 0 107 c0 83 3 109 15 119 8 7 15 19 15 28 0 21 40 62
61 62 9 0 22 7 29 15 7 8 20 15 30 15 10 0 23 7 30 15 18 21 282 22 300 1z"/>
</g>
</svg>
