<?xml version="1.0" standalone="no"?>
<!DOCTYPE svg PUBLIC "-//W3C//DTD SVG 20010904//EN"
 "http://www.w3.org/TR/2001/REC-SVG-20010904/DTD/svg10.dtd">
<svg version="1.0" xmlns="http://www.w3.org/2000/svg"
 width="26.000000pt" height="26.000000pt" viewBox="0 0 26.000000 26.000000"
 preserveAspectRatio="xMidYMid meet">
<metadata>
Created by potrace 1.10, written by Peter Selinger 2001-2011
</metadata>
<g transform="translate(0.000000,26.000000) scale(0.100000,-0.100000)"
fill="#777777" stroke="none">
<path d="M156 252 c-2 -4 -7 -24 -11 -45 -6 -32 -4 -42 15 -62 18 -19 20 -27
11 -44 -16 -29 -59 -27 -101 4 -18 14 -36 23 -39 20 -9 -10 63 -75 83 -76 21
0 21 -1 1 -9 -14 -5 -33 -1 -64 16 -49 27 -51 28 -51 14 0 -13 83 -60 106 -60
44 0 124 76 124 118 0 7 -16 20 -35 29 -33 16 -34 18 -28 60 5 40 1 54 -11 35z"/>
<path d="M204 205 c-9 -23 3 -45 25 -45 10 0 21 7 25 15 8 23 -4 45 -25 45
-11 0 -22 -7 -25 -15z"/>
</g>
</svg>
