<?xml version="1.0" standalone="no"?>
<!DOCTYPE svg PUBLIC "-//W3C//DTD SVG 20010904//EN"
 "http://www.w3.org/TR/2001/REC-SVG-20010904/DTD/svg10.dtd">
<svg version="1.0" xmlns="http://www.w3.org/2000/svg"
 width="831.000000pt" height="813.000000pt" viewBox="0 0 831.000000 813.000000"
 preserveAspectRatio="xMidYMid meet">
<metadata>
Created by potrace 1.10, written by Peter Selinger 2001-2011
</metadata>
<g transform="translate(0.000000,813.000000) scale(0.100000,-0.100000)"
fill="#777777" stroke="none">
<path d="M2839 8035 c-168 -29 -349 -120 -395 -200 -9 -16 -27 -41 -40 -55
-12 -14 -28 -36 -34 -50 -6 -14 -22 -41 -35 -60 -85 -122 -115 -169 -115 -182
0 -6 -13 -26 -30 -45 -16 -18 -30 -39 -30 -44 0 -6 -10 -24 -22 -39 -13 -15
-31 -40 -40 -56 -25 -42 -40 -65 -65 -101 -13 -17 -23 -37 -23 -44 0 -6 -13
-27 -30 -46 -16 -18 -30 -40 -30 -47 0 -8 -7 -19 -16 -27 -8 -7 -24 -29 -35
-48 -27 -50 -40 -70 -71 -112 -16 -20 -28 -42 -28 -49 0 -7 -13 -28 -30 -47
-16 -18 -30 -40 -30 -47 0 -8 -7 -19 -16 -27 -8 -7 -24 -29 -35 -48 -27 -50
-40 -70 -71 -112 -16 -20 -28 -42 -28 -49 0 -7 -13 -28 -30 -47 -16 -18 -30
-40 -30 -47 0 -8 -7 -19 -16 -27 -8 -7 -24 -29 -35 -48 -26 -49 -40 -70 -70
-111 -39 -53 -45 -87 -17 -110 13 -11 30 -19 39 -20 9 0 22 -7 29 -15 7 -8 16
-15 21 -15 4 0 28 -13 52 -30 25 -16 49 -30 55 -30 5 0 15 -7 22 -15 7 -8 20
-15 29 -15 9 -1 32 -14 51 -30 19 -17 39 -30 46 -30 6 0 17 -7 24 -15 7 -8 19
-15 27 -15 8 0 27 -9 41 -21 44 -33 102 -69 113 -69 6 0 23 -9 37 -21 48 -36
103 -69 116 -69 8 0 19 -7 26 -15 7 -8 17 -15 22 -15 6 0 27 -13 48 -30 21
-16 45 -30 53 -30 8 0 20 -7 27 -15 7 -8 17 -15 22 -15 6 0 27 -13 48 -30 21
-16 45 -30 53 -30 8 0 20 -7 27 -15 7 -8 17 -15 22 -15 6 0 27 -13 48 -30 21
-16 45 -30 53 -30 8 0 20 -7 27 -15 7 -8 18 -15 25 -15 6 0 23 -10 36 -21 13
-12 38 -28 56 -35 17 -8 34 -18 38 -24 3 -5 14 -10 23 -10 9 -1 33 -14 52 -30
19 -17 39 -30 46 -30 6 0 17 -7 24 -15 17 -20 50 -19 50 2 0 9 9 26 19 37 10
12 33 48 50 81 18 33 36 64 42 69 5 6 9 16 9 24 0 8 9 26 21 40 33 44 69 102
69 113 0 6 9 23 21 37 34 45 69 102 69 114 0 7 9 21 19 32 10 12 33 48 50 81
18 33 36 64 42 69 5 6 9 17 9 25 1 9 14 32 30 51 17 19 30 39 30 46 0 6 7 17
15 24 8 7 15 19 15 27 0 8 9 27 21 41 36 48 69 103 69 116 0 8 7 19 16 27 14
11 29 36 73 118 8 14 17 28 21 31 3 3 15 21 26 40 10 19 25 43 32 52 17 21 48
74 67 114 7 17 21 36 29 44 9 7 16 17 16 23 0 5 11 25 25 43 14 18 25 39 25
46 1 7 14 29 30 48 17 19 30 39 30 46 0 6 7 17 16 25 8 7 25 30 37 52 30 53
38 67 67 107 14 19 30 42 35 52 6 10 23 35 39 57 l28 40 -43 51 c-164 192
-534 560 -562 560 -7 0 -26 14 -42 30 -16 17 -36 30 -46 30 -9 0 -22 7 -29 15
-16 19 -68 45 -91 45 -10 0 -20 4 -23 9 -11 17 -125 51 -225 66 -119 17 -129
17 -232 0z"/>
<path d="M3663 7987 c-2 -4 8 -12 24 -18 36 -13 258 -233 333 -329 32 -41 72
-88 89 -104 17 -17 31 -35 31 -41 0 -6 27 -43 60 -81 33 -38 60 -74 60 -80 0
-5 14 -23 30 -39 17 -16 30 -35 30 -43 0 -8 12 -31 28 -51 33 -43 49 -69 61
-96 5 -11 21 -37 35 -58 14 -21 26 -42 26 -46 0 -5 7 -14 15 -21 8 -7 15 -18
15 -26 0 -7 11 -29 24 -48 13 -19 80 -151 150 -293 70 -142 133 -271 141 -286
8 -16 15 -35 15 -43 0 -8 4 -22 9 -32 6 -9 20 -39 32 -67 12 -27 25 -57 30
-65 11 -19 14 -25 29 -77 12 -39 11 -45 -6 -64 -10 -12 -41 -33 -68 -48 -71
-38 -86 -47 -99 -60 -6 -6 -19 -11 -28 -11 -9 0 -22 -7 -29 -15 -7 -8 -18 -15
-26 -15 -13 0 -68 -33 -116 -69 -14 -12 -33 -21 -41 -21 -8 0 -20 -7 -27 -15
-7 -8 -20 -15 -30 -15 -10 0 -23 -7 -30 -15 -7 -8 -21 -15 -31 -15 -10 0 -21
-5 -24 -10 -4 -6 -27 -21 -53 -34 -31 -16 -42 -26 -32 -29 60 -20 130 -27 272
-28 90 0 222 -5 293 -9 72 -5 261 -13 420 -19 160 -6 349 -15 420 -21 72 -5
211 -11 309 -12 l179 -3 29 45 c15 25 30 52 34 60 3 8 10 22 15 30 5 8 12 22
16 30 3 8 19 31 35 51 15 20 28 44 28 52 0 8 7 20 15 27 8 7 15 19 15 27 0 9
14 31 30 50 17 18 30 40 30 47 0 8 7 19 15 26 8 7 15 20 15 29 1 9 14 32 30
51 17 19 30 39 30 46 0 6 7 17 15 24 8 7 15 19 15 27 0 8 12 32 28 52 33 44
50 71 58 91 3 8 10 22 15 30 5 8 12 22 16 30 3 8 19 31 35 51 15 20 28 44 28
52 0 8 7 20 15 27 8 7 15 17 15 22 0 6 14 27 30 48 17 21 30 45 30 53 0 8 7
20 15 27 8 7 15 17 15 22 0 6 13 27 30 48 17 21 30 45 30 53 0 9 5 19 11 22 5
4 14 17 20 28 14 33 33 61 47 70 6 4 12 16 12 25 0 10 5 23 11 29 13 13 33 47
48 81 6 12 15 22 21 22 5 0 10 8 10 19 0 10 7 24 15 31 8 7 15 21 15 32 0 10
7 21 15 24 8 4 15 13 15 20 0 8 7 17 15 20 17 7 21 44 5 44 -5 0 -10 -4 -10
-9 0 -5 -12 -14 -27 -20 -38 -15 -113 -58 -133 -76 -9 -8 -21 -15 -27 -15 -6
0 -16 -7 -23 -15 -7 -8 -19 -15 -27 -15 -8 0 -32 -13 -53 -30 -21 -16 -42 -30
-48 -30 -5 0 -15 -7 -22 -15 -7 -8 -19 -15 -27 -15 -8 0 -32 -12 -52 -27 -44
-34 -71 -51 -91 -59 -8 -3 -24 -10 -36 -16 -31 -14 -67 -6 -74 17 -7 26 -39
80 -67 115 -13 15 -23 35 -23 43 0 9 -4 18 -9 21 -8 5 -26 37 -68 117 -7 15
-20 32 -28 39 -8 7 -15 19 -15 28 0 8 -6 23 -14 31 -7 9 -28 43 -46 76 -32 62
-63 110 -99 157 -12 14 -21 31 -21 37 0 10 -29 58 -67 111 -10 13 -23 37 -30
51 -20 48 -165 185 -225 213 -123 58 -120 58 -573 62 -844 8 -1567 9 -1572 1z"/>
<path d="M7190 5760 c0 -6 -12 -15 -26 -20 -15 -6 -41 -21 -58 -33 -37 -26
-51 -35 -103 -64 -22 -12 -45 -29 -52 -37 -8 -9 -20 -16 -28 -16 -8 0 -29 -10
-46 -23 -36 -25 -59 -40 -101 -65 -16 -9 -41 -27 -56 -39 -15 -13 -33 -23 -39
-23 -7 0 -24 -8 -39 -19 -42 -28 -82 -54 -116 -74 -17 -11 -40 -27 -52 -38
-11 -10 -25 -19 -32 -19 -12 0 -69 -35 -114 -69 -14 -12 -32 -21 -40 -21 -7 0
-25 -11 -38 -23 -14 -13 -37 -30 -52 -38 -88 -48 -106 -59 -117 -73 -8 -9 -20
-16 -28 -16 -8 0 -32 -12 -52 -27 -42 -33 -64 -47 -108 -68 -17 -9 -39 -25
-49 -36 -9 -10 -24 -19 -32 -19 -8 0 -31 -13 -51 -28 -20 -16 -44 -32 -55 -35
-17 -7 -17 -9 -2 -30 9 -12 22 -35 30 -52 7 -16 23 -39 35 -49 11 -11 21 -27
21 -36 0 -9 14 -29 30 -45 17 -16 30 -35 30 -42 0 -8 8 -26 19 -41 28 -42 54
-82 74 -116 11 -17 27 -40 38 -52 10 -11 19 -27 19 -35 0 -9 14 -28 30 -44 17
-16 30 -34 30 -41 0 -14 33 -69 69 -116 12 -14 21 -32 21 -38 0 -7 12 -29 28
-49 31 -42 44 -62 71 -112 11 -19 27 -41 35 -48 9 -8 16 -20 16 -28 0 -7 8
-26 19 -41 28 -42 54 -82 74 -116 11 -17 27 -40 38 -52 10 -11 19 -27 19 -36
0 -9 7 -21 15 -28 8 -7 15 -18 15 -24 0 -7 13 -27 30 -46 16 -19 29 -40 30
-47 0 -13 35 -70 69 -115 12 -14 21 -33 21 -41 0 -8 7 -20 15 -27 8 -7 15 -18
15 -24 0 -7 13 -27 30 -46 16 -19 29 -41 30 -49 0 -8 6 -22 14 -30 7 -9 28
-44 45 -78 18 -34 39 -67 47 -74 8 -6 14 -19 14 -29 0 -10 7 -23 15 -30 8 -7
15 -20 15 -30 0 -10 7 -23 15 -30 8 -7 15 -18 15 -25 0 -26 25 -35 71 -25 93
20 155 37 182 48 16 7 38 12 49 12 23 0 79 17 228 69 19 7 49 16 65 21 71 20
217 77 255 101 8 5 24 13 36 18 11 5 33 20 50 33 16 13 41 29 55 37 40 20 229
209 245 244 14 30 20 43 44 85 6 9 13 24 16 32 3 8 12 28 20 43 7 16 14 38 14
50 0 12 6 42 14 67 44 136 44 150 9 275 -18 66 -91 222 -119 255 -7 9 -27 43
-45 75 -17 33 -40 69 -50 81 -10 11 -19 27 -19 36 0 9 -6 20 -13 26 -6 6 -27
40 -46 76 -18 36 -40 71 -47 77 -8 6 -14 17 -14 25 0 13 -33 68 -69 116 -12
14 -21 32 -21 40 0 8 -5 19 -10 24 -13 13 -45 68 -65 110 -7 17 -21 36 -29 44
-9 7 -16 18 -16 26 0 13 -33 68 -69 116 -12 14 -21 33 -21 41 0 8 -7 20 -15
27 -8 7 -15 17 -15 22 0 6 -13 30 -30 55 -16 24 -30 48 -30 52 0 5 -7 14 -15
21 -8 7 -15 18 -15 26 0 13 -33 68 -69 116 -12 14 -21 33 -21 41 0 8 -7 20
-15 27 -8 7 -15 18 -15 25 0 6 -13 31 -30 53 -16 23 -30 46 -30 51 0 5 -7 14
-15 21 -8 7 -15 18 -15 26 0 23 -45 83 -62 84 -10 0 -18 -5 -18 -10z"/>
<path d="M90 5381 c0 -6 8 -11 18 -11 10 0 23 -5 29 -11 13 -13 47 -33 81 -48
12 -6 22 -15 22 -21 0 -5 8 -10 19 -10 10 0 24 -7 31 -15 7 -8 17 -15 22 -15
6 0 27 -13 48 -30 21 -16 45 -30 53 -30 8 0 20 -7 27 -15 7 -8 17 -15 22 -15
6 0 27 -13 48 -30 21 -16 45 -30 53 -30 8 0 20 -7 27 -15 7 -8 16 -15 21 -15
4 0 23 -10 43 -22 46 -30 47 -66 6 -118 -16 -21 -30 -43 -30 -50 0 -6 -9 -24
-21 -38 -34 -45 -69 -102 -69 -115 -1 -7 -14 -28 -30 -47 -17 -19 -30 -39 -30
-46 0 -6 -9 -19 -20 -29 -11 -10 -20 -23 -20 -28 0 -6 -11 -25 -25 -43 -14
-18 -25 -38 -25 -45 0 -7 -9 -22 -19 -33 -10 -12 -33 -48 -50 -80 -17 -33 -36
-65 -41 -71 -5 -6 -24 -38 -41 -71 -17 -32 -38 -66 -45 -75 -8 -8 -14 -22 -14
-30 0 -8 -5 -20 -12 -27 -38 -38 -62 -164 -55 -290 6 -95 11 -118 48 -182 5
-8 12 -22 15 -30 3 -8 10 -22 15 -30 5 -8 12 -22 15 -30 3 -8 10 -22 15 -30 5
-8 11 -21 14 -27 13 -32 17 -41 41 -83 14 -25 46 -84 70 -132 25 -47 51 -92
59 -98 8 -7 15 -20 15 -30 0 -10 7 -23 15 -30 8 -7 15 -20 15 -30 0 -10 7 -23
15 -30 8 -7 15 -20 15 -30 0 -10 7 -23 15 -30 8 -7 15 -20 15 -30 0 -10 7 -23
15 -30 8 -7 15 -21 15 -31 0 -10 4 -20 9 -23 5 -3 26 -39 46 -78 21 -40 44
-80 51 -89 8 -8 14 -23 14 -31 0 -9 7 -18 15 -22 8 -3 15 -14 15 -24 0 -11 7
-25 15 -32 8 -7 15 -20 15 -30 0 -10 7 -23 15 -30 8 -7 15 -20 15 -30 0 -10 7
-23 15 -30 8 -7 15 -20 15 -30 0 -10 7 -23 15 -30 8 -7 15 -20 15 -30 0 -10 7
-23 15 -30 8 -7 15 -21 15 -31 0 -10 5 -21 11 -24 5 -4 15 -17 20 -28 15 -34
36 -68 48 -80 6 -6 11 -19 11 -28 0 -9 7 -22 15 -29 8 -7 15 -20 15 -30 0 -10
7 -20 15 -24 8 -3 15 -14 15 -24 0 -11 7 -25 15 -32 8 -7 15 -20 15 -29 0 -9
5 -22 11 -28 6 -6 12 -19 13 -29 4 -30 20 -13 23 26 2 19 8 48 13 64 6 16 10
38 10 50 0 12 7 34 15 50 8 15 15 36 15 45 0 9 7 29 15 45 8 15 15 33 15 39 0
10 30 81 51 119 5 10 9 24 9 33 0 8 14 43 30 77 17 34 30 69 30 79 0 9 7 22
15 29 8 7 15 18 15 25 0 17 157 332 170 340 5 3 10 14 10 24 0 10 9 26 20 36
11 10 20 23 20 28 0 6 11 25 25 43 14 18 25 39 25 46 1 7 14 29 30 48 17 19
30 39 30 45 1 5 14 26 30 45 17 19 30 39 30 45 0 6 14 24 30 40 17 16 30 33
30 38 0 5 20 34 45 66 25 31 45 62 45 67 0 6 14 23 30 39 16 16 30 34 30 40 0
6 34 49 75 95 41 46 75 89 75 95 0 6 27 37 60 70 33 33 60 64 60 71 0 19 35
44 61 44 15 0 37 -12 54 -30 16 -16 35 -30 43 -30 8 0 31 -12 51 -27 42 -32
70 -50 91 -60 8 -3 31 -19 51 -35 20 -15 43 -28 51 -28 8 0 27 -13 43 -30 16
-16 36 -30 45 -30 8 0 30 -13 48 -30 18 -16 38 -30 44 -30 5 0 27 -13 48 -30
47 -37 74 -40 64 -7 -3 12 -13 29 -20 38 -8 8 -14 23 -14 31 0 9 -7 21 -15 28
-8 7 -15 20 -15 29 0 10 -13 44 -30 76 -17 32 -30 64 -30 71 0 6 -7 17 -15 24
-8 7 -15 20 -15 30 0 10 -7 23 -15 30 -8 7 -15 20 -15 30 0 10 -7 23 -15 30
-8 7 -15 20 -15 30 0 10 -7 23 -15 30 -8 7 -15 23 -15 35 0 13 -7 25 -15 29
-8 3 -15 16 -15 30 0 13 -7 26 -15 30 -8 3 -15 16 -15 29 0 14 -7 30 -15 37
-8 7 -15 18 -15 26 0 7 -34 82 -75 166 -41 84 -75 158 -75 164 0 6 -7 17 -15
24 -8 7 -15 20 -15 30 0 10 -7 23 -15 30 -8 7 -15 20 -15 30 0 10 -7 23 -15
30 -8 7 -15 20 -15 30 0 10 -7 23 -15 30 -8 7 -15 19 -15 28 0 9 -34 86 -76
171 -42 86 -87 180 -100 209 -13 29 -30 55 -37 57 -6 3 -145 9 -307 15 -582
20 -995 38 -1010 43 -32 11 -640 19 -640 8z"/>
<path d="M5397 3433 c-4 -10 -11 -25 -16 -33 -5 -8 -12 -22 -15 -30 -8 -20
-25 -47 -58 -91 -16 -20 -28 -44 -28 -52 0 -8 -7 -20 -15 -27 -8 -7 -15 -21
-15 -32 0 -10 -7 -21 -15 -24 -8 -4 -15 -13 -15 -21 0 -8 -13 -32 -30 -53 -16
-21 -30 -45 -30 -53 0 -8 -7 -20 -15 -27 -8 -7 -15 -16 -15 -21 0 -4 -13 -28
-30 -52 -16 -25 -30 -49 -30 -55 0 -5 -7 -15 -15 -22 -8 -7 -15 -21 -15 -32 0
-10 -7 -21 -15 -24 -8 -4 -15 -12 -15 -20 0 -8 -13 -33 -30 -56 -16 -22 -30
-47 -30 -53 0 -7 -7 -18 -15 -25 -8 -7 -15 -20 -15 -30 0 -10 -7 -23 -16 -31
-8 -7 -24 -29 -35 -48 -10 -20 -23 -43 -28 -51 -5 -8 -12 -22 -15 -30 -4 -8
-15 -28 -26 -45 -11 -16 -31 -51 -45 -77 -13 -26 -29 -49 -35 -53 -5 -3 -10
-14 -10 -24 0 -10 -6 -24 -14 -30 -13 -11 -30 -40 -73 -123 -8 -15 -18 -30
-24 -33 -5 -4 -9 -13 -9 -22 0 -9 -9 -26 -19 -37 -10 -12 -33 -48 -50 -81 -18
-33 -36 -64 -42 -69 -5 -6 -9 -18 -9 -27 0 -9 -7 -22 -15 -29 -14 -12 -12 -17
15 -45 16 -17 30 -36 30 -43 0 -12 35 -68 69 -114 12 -14 21 -32 21 -40 0 -8
14 -27 30 -43 17 -16 30 -35 30 -43 0 -8 14 -31 30 -52 17 -21 30 -42 30 -48
0 -5 7 -15 15 -22 8 -7 15 -20 15 -29 0 -10 14 -30 30 -46 17 -16 30 -36 30
-46 0 -9 7 -22 15 -29 8 -7 15 -17 15 -22 0 -6 14 -27 30 -48 17 -21 30 -44
30 -52 0 -7 11 -25 25 -40 14 -15 30 -38 35 -50 13 -29 28 -54 63 -99 15 -20
27 -42 27 -49 0 -7 14 -29 30 -50 17 -21 30 -42 30 -48 0 -5 7 -15 15 -22 8
-7 15 -18 15 -26 0 -7 14 -28 30 -46 17 -18 30 -39 30 -46 0 -8 14 -31 30 -52
17 -21 30 -42 30 -48 0 -5 7 -15 15 -22 8 -7 15 -20 15 -30 0 -10 7 -20 15
-24 8 -3 15 -12 15 -20 0 -7 7 -16 15 -20 8 -3 15 -13 15 -22 0 -9 14 -33 30
-54 17 -21 30 -42 30 -48 0 -5 7 -15 15 -22 8 -7 15 -20 15 -30 0 -10 6 -23
14 -29 8 -7 22 -28 31 -47 23 -49 32 -35 24 38 -5 35 -13 160 -19 278 -6 118
-15 251 -19 294 -5 44 -7 85 -4 92 6 16 65 21 358 33 245 10 440 23 620 41
115 12 214 40 295 86 48 26 150 124 150 142 0 9 8 25 19 36 10 12 40 63 66
114 27 51 52 95 57 98 4 3 8 13 8 23 0 10 7 24 15 31 8 7 15 20 15 30 0 10 7
23 15 30 8 7 15 20 15 30 0 10 7 23 15 30 8 7 15 20 15 30 0 10 7 23 15 30 8
7 15 20 15 30 0 10 7 23 15 30 8 7 21 24 28 39 56 110 90 172 98 177 5 3 9 13
9 23 0 10 7 24 15 31 8 7 15 20 15 30 0 10 7 23 15 30 8 7 15 20 15 30 0 10 7
23 15 30 8 7 15 20 15 30 0 10 7 23 15 30 8 7 15 21 15 32 0 10 7 21 15 24 8
4 15 14 15 24 0 10 7 23 15 30 8 7 15 19 15 27 0 8 14 32 30 53 17 21 30 45
30 53 0 8 7 20 15 27 8 7 15 20 15 30 0 10 7 23 15 30 8 7 15 20 15 30 0 10 7
23 15 30 8 7 15 20 15 30 0 10 7 23 15 30 8 7 15 21 15 31 0 10 5 21 11 24 5
4 14 17 20 28 5 12 13 30 19 40 5 9 15 25 20 35 6 9 14 27 19 39 6 11 15 24
20 28 6 3 11 14 11 23 0 10 10 26 21 36 16 13 18 20 10 29 -9 9 -15 8 -22 -5
-6 -10 -19 -18 -30 -18 -11 0 -42 -11 -68 -25 -52 -26 -203 -82 -261 -96 -128
-31 -172 -41 -230 -50 -36 -5 -85 -14 -110 -19 -25 -5 -76 -12 -115 -15 -38
-4 -92 -10 -120 -15 -27 -5 -185 -14 -350 -20 -250 -9 -347 -8 -580 5 -272 15
-447 30 -471 39 -14 5 -17 56 -33 486 -7 161 -13 296 -15 297 -2 2 -6 -4 -9
-14z"/>
<path d="M1500 2686 c0 -1 -12 -34 -26 -72 -30 -80 -68 -188 -117 -329 -31
-89 -45 -146 -92 -360 -23 -101 -27 -260 -11 -360 17 -107 37 -180 54 -197 7
-7 12 -19 12 -28 0 -9 4 -20 9 -25 6 -6 24 -37 41 -70 40 -76 206 -247 274
-282 103 -53 94 -51 746 -98 460 -33 629 -45 795 -54 94 -6 208 -15 255 -20
150 -18 337 -23 346 -10 4 7 11 112 15 233 15 429 29 783 39 931 5 83 13 257
16 388 l7 237 -84 0 c-78 0 -436 15 -964 41 -121 6 -303 15 -405 19 -362 17
-577 31 -705 45 -126 15 -205 19 -205 11z"/>
</g>
</svg>
