<?xml version="1.0" standalone="no"?>
<!DOCTYPE svg PUBLIC "-//W3C//DTD SVG 20010904//EN"
 "http://www.w3.org/TR/2001/REC-SVG-20010904/DTD/svg10.dtd">
<svg version="1.0" xmlns="http://www.w3.org/2000/svg"
 width="78.000000pt" height="72.000000pt" viewBox="0 0 78.000000 72.000000"
 preserveAspectRatio="xMidYMid meet">
<metadata>
Created by potrace 1.10, written by Peter Selinger 2001-2011
</metadata>
<g transform="translate(0.000000,72.000000) scale(0.100000,-0.100000)"
fill="#fdcc05" stroke="none">
<path d="M350 655 c-7 -8 -18 -15 -26 -15 -7 0 -28 -13 -46 -30 -18 -16 -41
-30 -50 -30 -14 0 -17 -5 -13 -23 5 -18 -3 -29 -44 -60 -28 -20 -53 -37 -56
-37 -4 0 -26 -15 -51 -34 -25 -19 -51 -37 -57 -40 -21 -8 15 -26 54 -26 20 0
42 -7 49 -15 16 -19 64 -19 80 0 16 19 64 19 80 0 16 -19 54 -19 70 0 16 19
64 19 80 0 7 -8 23 -15 35 -15 12 0 28 7 35 15 7 8 25 15 40 15 15 0 33 -7 40
-15 7 -9 29 -15 51 -15 l39 0 0 -115 0 -115 -100 0 -100 0 0 90 0 90 -184 0
c-101 0 -191 3 -200 6 -14 5 -16 -9 -16 -124 0 -72 3 -137 6 -146 5 -14 42
-16 314 -16 272 0 309 2 314 16 3 9 6 89 6 179 l0 163 30 5 c17 4 30 10 30 14
-1 7 -57 47 -108 78 -10 6 -39 26 -65 45 -40 28 -47 38 -42 57 4 17 1 23 -10
23 -16 0 -27 8 -66 43 -10 9 -24 17 -30 17 -6 0 -17 7 -25 15 -9 8 -24 15 -33
15 -10 0 -24 -7 -31 -15z m-22 -457 l3 -68 -71 0 -70 0 0 63 c0 35 3 67 7 71
4 4 34 6 68 4 l60 -3 3 -67z"/>
</g>
</svg>
