<?xml version="1.0" standalone="no"?>
<!DOCTYPE svg PUBLIC "-//W3C//DTD SVG 20010904//EN"
 "http://www.w3.org/TR/2001/REC-SVG-20010904/DTD/svg10.dtd">
<svg version="1.0" xmlns="http://www.w3.org/2000/svg"
 width="240.000000pt" height="321.000000pt" viewBox="0 0 240.000000 321.000000"
 preserveAspectRatio="xMidYMid meet">
<metadata>
Created by potrace 1.10, written by Peter Selinger 2001-2011
</metadata>
<g transform="translate(0.000000,321.000000) scale(0.100000,-0.100000)"
fill="#fdcc05" stroke="none">
<path d="M1123 3198 c1 -8 -20 -17 -53 -24 -137 -29 -252 -129 -315 -274 -16
-36 -20 -67 -20 -165 1 -116 2 -122 35 -190 172 -346 661 -337 821 16 9 20 22
68 29 108 27 162 -41 331 -173 428 -62 46 -110 68 -166 78 -23 4 -45 13 -48
21 -7 18 -114 20 -110 2z"/>
<path d="M810 2209 c-27 -8 -118 -94 -378 -352 -207 -206 -349 -355 -358 -376
-53 -124 51 -237 186 -201 39 10 70 37 233 201 104 104 193 189 198 189 11 0
10 7 9 -152 -1 -75 4 -136 10 -148 11 -20 19 -20 464 -20 378 0 455 2 465 14
8 9 12 59 11 148 -1 166 -2 158 9 158 5 0 97 -88 205 -194 182 -180 201 -195
241 -201 83 -13 139 15 175 86 25 48 25 70 1 118 -23 43 -644 669 -705 710
l-39 26 -346 2 c-212 1 -360 -2 -381 -8z"/>
<path d="M523 998 c-164 -168 -170 -175 -180 -228 -13 -64 -2 -143 27 -198 11
-19 102 -121 203 -226 100 -105 202 -212 226 -238 63 -70 102 -91 168 -91 61
0 93 18 131 73 27 40 29 102 5 151 -9 19 -77 96 -152 172 -75 76 -138 140
-140 142 -2 3 51 61 118 129 95 95 122 128 117 143 -7 22 -327 343 -343 343
-5 0 -86 -78 -180 -172z"/>
<path d="M1461 995 l-176 -175 123 -123 c67 -67 122 -129 122 -137 0 -8 -62
-78 -138 -155 -164 -166 -186 -205 -158 -278 9 -24 32 -58 51 -77 31 -30 39
-33 95 -33 36 1 70 7 83 16 20 13 172 165 296 297 24 25 78 81 120 125 99 103
121 141 128 224 10 120 2 135 -185 323 -91 93 -170 168 -176 168 -6 0 -89 -79
-185 -175z"/>
</g>
</svg>
