<?xml version="1.0" standalone="no"?>
<!DOCTYPE svg PUBLIC "-//W3C//DTD SVG 20010904//EN"
 "http://www.w3.org/TR/2001/REC-SVG-20010904/DTD/svg10.dtd">
<svg version="1.0" xmlns="http://www.w3.org/2000/svg"
 width="78.000000pt" height="78.000000pt" viewBox="0 0 78.000000 78.000000"
 preserveAspectRatio="xMidYMid meet">
<metadata>
Created by potrace 1.10, written by Peter Selinger 2001-2011
</metadata>
<g transform="translate(0.000000,78.000000) scale(0.100000,-0.100000)"
fill="#777777" stroke="none">
<path d="M87 674 c-4 -4 -7 -18 -7 -31 0 -13 -6 -23 -14 -23 -7 0 -25 -9 -40
-21 l-26 -20 0 -199 0 -199 26 -20 c26 -20 38 -21 354 -21 312 0 328 1 353 20
14 11 30 20 36 20 8 0 11 62 11 200 0 138 -3 200 -11 200 -6 0 -22 9 -36 20
-24 19 -41 20 -279 20 l-253 0 -3 28 c-3 25 -7 27 -53 30 -28 2 -54 0 -58 -4z
m111 -141 c-3 -27 -5 -28 -58 -28 -53 0 -55 1 -58 28 -3 27 -3 27 58 27 61 0
61 0 58 -27z m389 6 c19 -12 48 -40 64 -62 24 -33 29 -50 29 -97 0 -47 -5 -64
-29 -97 -42 -58 -88 -83 -151 -83 -63 0 -109 25 -151 83 -24 33 -29 50 -29 95
0 66 24 110 83 153 51 37 131 41 184 8z"/>
<path d="M451 482 c-90 -49 -87 -163 5 -207 45 -21 85 -13 123 26 39 38 47 78
26 123 -31 64 -97 89 -154 58z"/>
</g>
</svg>
