<?xml version="1.0" standalone="no"?>
<!DOCTYPE svg PUBLIC "-//W3C//DTD SVG 20010904//EN"
 "http://www.w3.org/TR/2001/REC-SVG-20010904/DTD/svg10.dtd">
<svg version="1.0" xmlns="http://www.w3.org/2000/svg"
 width="78.000000pt" height="78.000000pt" viewBox="0 0 78.000000 78.000000"
 preserveAspectRatio="xMidYMid meet">
<metadata>
Created by potrace 1.10, written by Peter Selinger 2001-2011
</metadata>
<g transform="translate(0.000000,78.000000) scale(0.100000,-0.100000)"
fill="#777777" stroke="none">
<path d="M570 767 c0 -17 -172 -187 -190 -187 -8 0 -38 23 -67 52 -50 49 -54
51 -70 35 -16 -16 -14 -20 35 -70 29 -29 49 -56 46 -60 -4 -4 -67 -7 -139 -7
-119 0 -135 -2 -159 -21 l-26 -20 0 -228 c0 -208 2 -229 18 -244 17 -15 57
-17 364 -17 295 0 347 2 358 15 7 8 19 15 26 15 12 0 14 41 14 230 0 160 -3
230 -11 230 -6 0 -22 9 -36 20 -23 18 -41 20 -159 20 -73 0 -135 4 -138 8 -3
5 35 49 85 98 69 69 89 95 89 116 0 21 -5 28 -20 28 -11 0 -20 -6 -20 -13z
m-77 -313 c53 -25 67 -66 67 -194 0 -193 -20 -210 -255 -210 -235 0 -255 17
-255 210 0 126 14 168 64 193 46 23 331 24 379 1z m201 -90 c9 -8 16 -22 16
-29 0 -18 -27 -45 -45 -45 -18 0 -45 27 -45 45 0 18 27 45 45 45 7 0 21 -7 29
-16z m0 -120 c9 -8 16 -22 16 -29 0 -18 -27 -45 -45 -45 -18 0 -45 27 -45 45
0 18 27 45 45 45 7 0 21 -7 29 -16z"/>
</g>
</svg>
