<?xml version="1.0" standalone="no"?>
<!DOCTYPE svg PUBLIC "-//W3C//DTD SVG 20010904//EN"
 "http://www.w3.org/TR/2001/REC-SVG-20010904/DTD/svg10.dtd">
<svg version="1.0" xmlns="http://www.w3.org/2000/svg"
 width="78.000000pt" height="78.000000pt" viewBox="0 0 78.000000 78.000000"
 preserveAspectRatio="xMidYMid meet">
<metadata>
Created by potrace 1.10, written by Peter Selinger 2001-2011
</metadata>
<g transform="translate(0.000000,78.000000) scale(0.100000,-0.100000)"
fill="#777777" stroke="none">
<path d="M67 493 c-4 -3 16 -27 45 -53 51 -45 52 -48 40 -75 -17 -37 1 -49 39
-29 16 8 38 14 51 14 13 0 43 6 68 14 72 23 132 37 175 43 80 10 62 31 -45 54
-35 8 -65 6 -121 -6 -98 -20 -101 -20 -157 15 -48 29 -81 37 -95 23z"/>
<path d="M695 423 c-50 -14 -110 -31 -195 -53 -25 -6 -66 -15 -92 -20 -26 -5
-56 -13 -67 -19 -11 -6 -28 -11 -39 -11 -19 0 -100 -22 -156 -43 -42 -16 -84
-54 -107 -98 -11 -22 -24 -39 -29 -39 -6 0 -10 -11 -10 -25 0 -22 4 -25 38
-25 21 0 43 5 50 12 9 9 21 8 50 -1 24 -8 57 -11 83 -7 24 4 56 6 72 6 32 -1
135 -1 175 0 15 0 51 -2 80 -6 34 -4 58 -2 65 5 14 14 64 14 72 1 3 -6 26 -10
51 -10 40 0 44 2 44 24 0 22 -5 25 -57 30 -87 8 -86 8 -110 1 -17 -6 -23 -3
-23 9 0 9 4 16 8 16 8 0 73 84 85 110 4 8 16 29 27 45 11 17 24 40 30 53 5 12
16 22 25 22 8 0 15 9 15 20 0 24 -14 24 -85 3z m-221 -141 c8 -14 -5 -52 -19
-52 -19 0 -38 28 -31 45 6 16 41 21 50 7z m-119 -22 c9 -15 -4 -50 -19 -50 -8
0 -19 7 -26 15 -10 12 -10 18 0 30 14 17 36 20 45 5z m-122 -62 c-15 -17 -17
-17 -35 -1 -17 15 -17 17 -1 35 15 17 17 17 35 1 17 -15 17 -17 1 -35z"/>
<path d="M90 60 c-8 -5 -32 -10 -52 -10 -34 0 -38 -3 -38 -25 0 -22 4 -25 39
-25 22 0 43 4 46 10 8 13 48 13 62 -1 7 -7 31 -9 65 -5 29 4 65 6 81 6 15 -1
54 -1 87 -1 33 0 74 0 90 0 17 0 57 0 90 0 33 0 72 0 88 1 15 0 51 -2 80 -6
50 -6 52 -5 52 19 0 23 -4 26 -57 31 -32 3 -66 5 -75 5 -10 0 -49 -1 -88 -1
-38 0 -79 0 -90 0 -11 0 -51 0 -90 0 -38 0 -79 0 -90 0 -11 0 -50 0 -87 -1
-38 -1 -75 2 -83 6 -8 4 -22 2 -30 -3z"/>
</g>
</svg>
