<?xml version="1.0" standalone="no"?>
<!DOCTYPE svg PUBLIC "-//W3C//DTD SVG 20010904//EN"
 "http://www.w3.org/TR/2001/REC-SVG-20010904/DTD/svg10.dtd">
<svg version="1.0" xmlns="http://www.w3.org/2000/svg"
 width="78.000000pt" height="78.000000pt" viewBox="0 0 78.000000 78.000000"
 preserveAspectRatio="xMidYMid meet">
<metadata>
Created by potrace 1.10, written by Peter Selinger 2001-2011
</metadata>
<g transform="translate(0.000000,78.000000) scale(0.100000,-0.100000)"
fill="#fdcc05" stroke="none">
<path d="M125 586 c-5 -2 -36 -9 -67 -16 l-58 -11 0 -178 0 -178 58 -14 c77
-19 330 -17 392 2 l45 15 0 173 0 174 -45 14 c-41 13 -300 28 -325 19z"/>
<path d="M639 518 c-52 -34 -96 -63 -97 -64 -9 -6 -14 -86 -8 -116 6 -28 19
-41 84 -83 98 -64 120 -75 143 -75 18 0 19 11 19 200 l0 200 -24 0 c-13 0 -66
-28 -117 -62z"/>
</g>
</svg>
