<?xml version="1.0" standalone="no"?>
<!DOCTYPE svg PUBLIC "-//W3C//DTD SVG 20010904//EN"
 "http://www.w3.org/TR/2001/REC-SVG-20010904/DTD/svg10.dtd">
<svg version="1.0" xmlns="http://www.w3.org/2000/svg"
 width="78.000000pt" height="78.000000pt" viewBox="0 0 78.000000 78.000000"
 preserveAspectRatio="xMidYMid meet">
<metadata>
Created by potrace 1.10, written by Peter Selinger 2001-2011
</metadata>
<g transform="translate(0.000000,78.000000) scale(0.100000,-0.100000)"
fill="#777777" stroke="none">
<path d="M170 700 l0 -80 30 0 30 0 0 80 0 80 -30 0 -30 0 0 -80z"/>
<path d="M530 700 l0 -80 30 0 30 0 0 80 0 80 -30 0 -30 0 0 -80z"/>
<path d="M27 690 l-27 -21 0 -318 c0 -295 1 -319 18 -334 17 -15 57 -17 364
-17 295 0 347 2 358 15 7 8 19 15 26 15 12 0 14 55 14 320 0 215 -3 320 -10
320 -6 0 -23 9 -39 21 -20 14 -39 19 -67 17 -37 -3 -39 -5 -42 -41 -8 -100
-116 -100 -124 0 l-3 38 -115 0 -115 0 -3 -38 c-4 -43 -31 -77 -62 -77 -31 0
-58 34 -62 77 -3 37 -4 38 -44 41 -29 2 -47 -3 -67 -18z m683 -403 c0 -152 -3
-216 -12 -225 -17 -17 -619 -17 -636 0 -9 9 -12 73 -12 225 l0 213 330 0 330
0 0 -213z"/>
<path d="M264 396 c-15 -38 -1 -51 59 -54 50 -3 57 -5 57 -24 0 -18 -38 -109
-71 -170 -16 -31 -10 -38 35 -38 48 0 54 5 80 70 10 25 24 59 32 75 7 17 20
47 29 68 9 21 15 48 13 60 -3 21 -8 22 -116 25 -92 2 -113 0 -118 -12z"/>
</g>
</svg>
