<?xml version="1.0" standalone="no"?>
<!DOCTYPE svg PUBLIC "-//W3C//DTD SVG 20010904//EN"
 "http://www.w3.org/TR/2001/REC-SVG-20010904/DTD/svg10.dtd">
<svg version="1.0" xmlns="http://www.w3.org/2000/svg"
 width="78.000000pt" height="78.000000pt" viewBox="0 0 78.000000 78.000000"
 preserveAspectRatio="xMidYMid meet">
<metadata>
Created by potrace 1.10, written by Peter Selinger 2001-2011
</metadata>
<g transform="translate(0.000000,78.000000) scale(0.100000,-0.100000)"
fill="#fff" stroke="none">
<path d="M122 608 c-7 -7 -12 -27 -12 -45 0 -25 -4 -33 -18 -33 -34 0 -42 -21
-42 -116 0 -90 -1 -92 -25 -98 -22 -6 -25 -11 -25 -56 0 -44 4 -52 34 -77 39
-31 38 -43 -5 -43 -24 0 -29 -4 -29 -25 0 -22 4 -25 39 -25 22 0 43 4 46 10 8
13 52 13 60 0 8 -13 102 -13 110 0 8 13 62 13 70 0 8 -13 102 -13 110 0 8 13
62 13 70 0 8 -13 102 -13 110 0 8 13 62 13 70 0 3 -5 26 -10 51 -10 40 0 44 2
44 25 0 23 -4 25 -44 25 -81 0 -94 17 -53 73 31 44 53 87 61 120 3 15 13 27
21 27 10 0 15 11 15 34 0 30 -4 34 -31 40 -17 3 -64 6 -105 6 -72 0 -73 0
-101 -37 -64 -83 -63 -83 -194 -83 l-119 0 0 56 c0 36 5 61 15 70 18 18 20 55
3 72 -7 7 -27 12 -45 12 -31 0 -33 2 -33 33 0 30 -14 57 -30 57 -3 0 -11 -5
-18 -12z m523 -268 c8 -13 -13 -40 -30 -40 -15 0 -28 27 -19 41 7 12 41 11 49
-1z"/>
<path d="M90 60 c-8 -5 -32 -10 -52 -10 -34 0 -38 -3 -38 -25 0 -22 4 -25 39
-25 22 0 43 4 46 10 8 13 52 13 60 0 8 -14 81 -13 121 2 26 9 38 9 58 -1 16
-9 40 -11 72 -7 27 4 61 6 77 6 33 -1 137 -1 175 0 15 0 51 -2 80 -6 50 -6 52
-5 52 19 0 23 -4 26 -57 31 -32 3 -66 5 -75 5 -10 0 -49 -1 -88 -1 -38 0 -79
0 -90 0 -11 0 -51 0 -90 0 -38 0 -79 0 -90 0 -11 0 -50 0 -87 -1 -38 -1 -75 2
-83 6 -8 4 -22 2 -30 -3z"/>
</g>
</svg>
