<?xml version="1.0" standalone="no"?>
<!DOCTYPE svg PUBLIC "-//W3C//DTD SVG 20010904//EN"
 "http://www.w3.org/TR/2001/REC-SVG-20010904/DTD/svg10.dtd">
<svg version="1.0" xmlns="http://www.w3.org/2000/svg"
 width="78.000000pt" height="78.000000pt" viewBox="0 0 78.000000 78.000000"
 preserveAspectRatio="xMidYMid meet">
<metadata>
Created by potrace 1.10, written by Peter Selinger 2001-2011
</metadata>
<g transform="translate(0.000000,78.000000) scale(0.100000,-0.100000)"
fill="#fff" stroke="none">
<path d="M685 743 c-3 -20 -19 -49 -35 -65 -25 -24 -36 -28 -87 -29 -80 0
-141 -27 -181 -79 -39 -51 -40 -85 -2 -85 18 0 26 6 28 22 2 13 20 36 40 53
31 26 45 30 97 31 81 0 142 30 172 85 17 30 21 50 17 73 -9 45 -40 42 -49 -6z"/>
<path d="M139 475 c-40 -26 -63 -55 -97 -122 -18 -35 -22 -63 -24 -163 l-3
-120 29 -25 c48 -41 74 -34 156 45 62 59 108 80 180 80 72 0 118 -21 180 -80
81 -78 108 -86 153 -47 26 22 27 25 27 145 0 127 -7 154 -63 235 -24 36 -89
77 -121 77 -13 0 -51 -20 -85 -45 -40 -30 -71 -45 -91 -45 -20 0 -51 15 -91
45 -70 51 -97 55 -150 20z m93 -122 c2 -22 9 -29 31 -31 24 -3 28 -7 25 -30
-2 -18 -10 -28 -28 -32 -15 -4 -26 -15 -30 -30 -4 -18 -13 -25 -30 -25 -17 0
-26 7 -30 25 -4 15 -15 26 -30 30 -18 4 -26 14 -28 32 -3 23 1 27 25 30 22 2
29 9 31 31 3 22 8 27 32 27 24 0 29 -5 32 -27z m360 0 c2 -22 9 -29 31 -31 22
-3 27 -8 27 -32 0 -24 -5 -29 -27 -32 -22 -2 -29 -9 -31 -30 -3 -23 -8 -28
-32 -28 -24 0 -29 5 -32 28 -2 21 -9 28 -30 30 -23 3 -28 8 -28 32 0 24 5 29
28 32 21 2 28 9 30 31 3 22 8 27 32 27 24 0 29 -5 32 -27z"/>
<path d="M534 306 c-10 -26 4 -48 28 -44 33 4 33 52 0 56 -13 2 -25 -3 -28
-12z"/>
</g>
</svg>
