<?xml version="1.0" standalone="no"?>
<!DOCTYPE svg PUBLIC "-//W3C//DTD SVG 20010904//EN"
 "http://www.w3.org/TR/2001/REC-SVG-20010904/DTD/svg10.dtd">
<svg version="1.0" xmlns="http://www.w3.org/2000/svg"
 width="78.000000pt" height="78.000000pt" viewBox="0 0 78.000000 78.000000"
 preserveAspectRatio="xMidYMid meet">
<metadata>
Created by potrace 1.10, written by Peter Selinger 2001-2011
</metadata>
<g transform="translate(0.000000,78.000000) scale(0.100000,-0.100000)"
fill="#fff" stroke="none">
<path d="M610 766 c0 -25 -125 -56 -249 -63 -64 -3 -122 -10 -128 -16 -7 -5
-26 -35 -42 -66 -16 -31 -45 -85 -65 -121 -19 -36 -47 -87 -61 -115 -14 -27
-29 -57 -34 -65 -4 -8 -13 -25 -19 -37 -7 -13 -12 -45 -12 -73 0 -45 4 -54 39
-88 70 -67 212 -108 416 -118 l100 -6 17 39 c10 21 43 92 73 158 71 150 91
195 98 218 4 9 13 17 22 17 10 0 15 10 15 30 0 27 -4 30 -40 36 -22 4 -40 9
-40 12 0 2 5 22 11 43 14 47 1 69 -42 69 -15 0 -30 3 -32 8 -3 4 5 29 18 55
29 63 23 97 -16 97 -18 0 -29 -5 -29 -14z m-50 -120 c0 -13 -7 -37 -15 -53 -8
-15 -26 -55 -41 -88 -14 -33 -35 -80 -46 -105 -61 -137 -66 -140 -238 -140
-74 0 -131 4 -135 10 -3 5 12 42 33 82 93 174 116 215 138 249 l22 36 106 7
c58 4 116 11 128 16 37 14 48 11 48 -14z m62 -122 c-2 -16 -10 -36 -18 -45 -8
-8 -14 -23 -14 -31 0 -9 -7 -21 -15 -28 -8 -7 -15 -17 -15 -23 0 -17 -101
-215 -116 -228 -17 -14 -239 1 -239 16 0 6 38 12 85 15 113 7 162 31 184 90 3
8 10 22 15 30 5 8 17 33 26 55 10 22 24 52 32 67 7 14 13 31 13 36 0 21 43 83
54 79 6 -2 10 -17 8 -33z m58 -98 c0 -8 -7 -27 -15 -43 -12 -25 -55 -116 -124
-265 -31 -65 -41 -72 -103 -64 -29 4 -57 11 -63 16 -6 5 -30 10 -53 12 -23 2
-41 8 -40 13 2 6 35 9 84 6 95 -4 122 3 135 32 5 12 13 29 18 37 5 8 12 22 15
30 3 8 10 22 15 30 5 8 12 22 15 30 3 8 10 23 16 33 5 9 15 25 20 35 6 9 13
24 16 32 3 8 10 22 15 30 5 8 12 23 15 33 7 20 34 23 34 3z"/>
<path d="M325 583 c-11 -11 -15 -26 -11 -45 5 -25 1 -30 -33 -48 -41 -21 -81
-67 -81 -94 0 -13 13 -16 70 -16 58 0 77 4 111 25 51 33 59 53 31 76 -23 18
-29 44 -12 54 16 10 12 52 -6 59 -27 10 -52 7 -69 -11z"/>
<path d="M315 349 c-27 -4 -71 -6 -96 -4 -37 3 -48 0 -58 -17 -7 -11 -10 -23
-7 -26 10 -9 131 -1 177 12 26 8 45 20 47 30 2 9 0 15 -5 15 -4 -1 -30 -5 -58
-10z"/>
</g>
</svg>
