<?xml version="1.0" standalone="no"?>
<!DOCTYPE svg PUBLIC "-//W3C//DTD SVG 20010904//EN"
 "http://www.w3.org/TR/2001/REC-SVG-20010904/DTD/svg10.dtd">
<svg version="1.0" xmlns="http://www.w3.org/2000/svg"
 width="78.000000pt" height="78.000000pt" viewBox="0 0 78.000000 78.000000"
 preserveAspectRatio="xMidYMid meet">
<metadata>
Created by potrace 1.10, written by Peter Selinger 2001-2011
</metadata>
<g transform="translate(0.000000,78.000000) scale(0.100000,-0.100000)"
fill="#fff" stroke="none">
<path d="M2 428 l3 -352 25 -12 c14 -7 43 -20 65 -30 22 -9 48 -21 57 -25 34
-17 77 -8 155 31 78 40 78 40 113 23 19 -9 51 -23 70 -31 19 -8 43 -19 52 -23
33 -17 74 -9 145 26 39 19 76 35 82 35 8 0 11 106 11 355 0 348 0 355 -20 355
-11 0 -20 -7 -20 -15 0 -9 -8 -18 -17 -22 -94 -33 -117 -55 -94 -91 7 -12 14
-11 38 2 17 8 33 12 37 9 3 -4 6 -128 6 -277 l0 -271 -61 -29 c-71 -34 -83
-31 -108 30 -35 85 -65 108 -155 114 l-71 5 -32 50 c-19 29 -44 54 -60 60 -16
6 -44 21 -63 33 -19 12 -46 25 -60 28 -14 3 -31 7 -37 10 -15 4 -19 239 -5
248 9 5 64 -12 99 -32 49 -27 103 -1 103 50 0 21 -13 23 -39 6 -16 -9 -26 -9
-53 4 -52 24 -101 46 -120 52 -10 3 -18 12 -18 21 0 8 -7 15 -15 15 -13 0 -15
-43 -13 -352z"/>
<path d="M380 770 c0 -5 -18 -28 -39 -49 -65 -65 -64 -88 8 -234 34 -68 61
-131 61 -140 0 -28 12 -47 30 -47 18 0 30 19 30 47 0 9 27 72 61 141 72 146
72 169 8 233 -21 21 -39 44 -39 49 0 6 -27 10 -60 10 -33 0 -60 -4 -60 -10z
m104 -106 c21 -20 20 -63 -1 -86 -35 -39 -103 -11 -103 43 0 36 24 59 60 59
16 0 36 -7 44 -16z"/>
</g>
</svg>
