<?xml version="1.0" standalone="no"?>
<!DOCTYPE svg PUBLIC "-//W3C//DTD SVG 20010904//EN"
 "http://www.w3.org/TR/2001/REC-SVG-20010904/DTD/svg10.dtd">
<svg version="1.0" xmlns="http://www.w3.org/2000/svg"
 width="78.000000pt" height="78.000000pt" viewBox="0 0 78.000000 78.000000"
 preserveAspectRatio="xMidYMid meet">
<metadata>
Created by potrace 1.10, written by Peter Selinger 2001-2011
</metadata>
<g transform="translate(0.000000,78.000000) scale(0.100000,-0.100000)"
fill="#fff" stroke="none">
<path d="M13 703 c-10 -3 -13 -71 -13 -288 l0 -283 36 -32 c20 -17 47 -36 61
-41 13 -5 142 -9 286 -9 289 0 285 -1 361 67 l36 32 0 211 c0 168 -3 210 -13
210 -8 0 -24 11 -37 25 -22 23 -31 25 -112 25 l-88 0 0 33 c0 18 -5 38 -12 45
-9 9 -78 12 -252 11 -133 0 -247 -3 -253 -6z m460 -300 c2 -137 7 -258 11
-270 l8 -23 -194 0 c-182 0 -197 1 -222 21 l-26 20 0 250 0 249 210 0 209 0 4
-247z m119 -15 l3 -173 25 0 25 0 5 170 5 170 25 0 25 0 3 -199 2 -200 -26
-23 c-38 -32 -95 -31 -129 2 l-25 26 0 199 0 200 30 0 30 0 2 -172z"/>
<path d="M86 574 c-8 -20 -8 -68 0 -88 5 -14 30 -16 174 -16 183 0 180 -1 180
60 0 61 3 60 -180 60 -144 0 -169 -2 -174 -16z"/>
<path d="M97 404 c-13 -13 -7 -42 9 -48 23 -9 87 -7 102 3 8 5 12 17 10 27 -3
15 -14 20 -58 22 -31 2 -59 0 -63 -4z"/>
<path d="M277 404 c-4 -4 -7 -15 -7 -25 0 -23 30 -31 101 -27 50 3 54 5 54 28
0 24 -3 25 -70 28 -39 1 -74 0 -78 -4z"/>
<path d="M102 311 c-8 -5 -12 -17 -10 -27 3 -21 59 -31 105 -20 26 7 32 41 7
50 -23 9 -87 7 -102 -3z"/>
<path d="M283 313 c-18 -7 -16 -40 3 -47 20 -8 108 -8 128 0 21 8 21 40 0 48
-18 7 -113 7 -131 -1z"/>
<path d="M114 215 c-13 -33 4 -46 53 -43 37 2 49 7 51 22 5 24 -14 36 -61 36
-24 0 -40 -5 -43 -15z"/>
<path d="M282 221 c-8 -5 -12 -17 -10 -27 3 -17 13 -19 78 -19 65 0 75 2 78
19 5 26 -15 36 -78 36 -30 0 -61 -4 -68 -9z"/>
</g>
</svg>
