<?xml version="1.0" standalone="no"?>
<!DOCTYPE svg PUBLIC "-//W3C//DTD SVG 20010904//EN"
 "http://www.w3.org/TR/2001/REC-SVG-20010904/DTD/svg10.dtd">
<svg version="1.0" xmlns="http://www.w3.org/2000/svg"
 width="26.000000pt" height="26.000000pt" viewBox="0 0 26.000000 26.000000"
 preserveAspectRatio="xMidYMid meet">
<metadata>
Created by potrace 1.10, written by Peter Selinger 2001-2011
</metadata>
<g transform="translate(0.000000,26.000000) scale(0.050000,-0.050000)"
fill="#777777" stroke="none">
<path d="M247 490 c-7 -18 -3 -42 9 -54 30 -30 88 -3 80 39 -9 46 -73 57 -89
15z"/>
<path d="M121 376 c-49 -52 -52 -87 -9 -104 44 -17 42 -19 66 51 38 110 15
131 -57 53z"/>
<path d="M203 315 c-20 -79 -18 -88 33 -141 40 -42 52 -72 47 -120 -9 -86 30
-48 47 47 10 53 5 78 -18 98 -58 47 -41 116 28 113 l60 -2 3 -160 4 -160 12
190 c13 201 7 247 -23 191 -18 -31 -23 -31 -67 -2 -76 49 -102 38 -126 -54z"/>
<path d="M159 104 c-45 -116 -45 -118 10 -54 52 62 64 100 35 118 -9 5 -30
-23 -45 -64z"/>
</g>
</svg>
